:SAMPLES-PER-SECOND 30
:FULLY-SPECIFIED
:DEGREES
695
root  -61.8313 40.106 4.84905 -27.9958 -85.9464 28.2297
RightUpLeg  -16.4733 -6.87649 -2.79129
RightLeg  15.2982 5.93284 1.61184
RightFoot  1.04103 0.101823 -0.872909
RightToes  6.35927e-011 1.30204e-014 -6.03759e-014
Spine  15.4538 -2.50678 7.05268
Spine1  14.0073 -0.961227 -3.27894
HEad  -24.8432 -4.66988 0.473265
LeftShoulder1  1.90992 -4.07527 -18.6531
LeftArm  3.70044 -56.6838 -42.2953
LeftForeArm  -18.7282 -21.2932 -6.04874
LeftHand  -0.0783571 3.80267 4.48993
RightShoulder  0.898485 0.922831 13.3969
RightArm  -4.5679 58.727 37.4677
RightForeArm  -31.5481 13.2492 5.44558
RightHand  0.00156691 9.32397 -0.38703
LeftUpLeg  -15.5238 -0.45076 0.892295
LeftLeg  9.33942 -13.0839 -0.997861
LeftFoot  4.16951 0.256913 -2.07959
LeftToes  -7.16024e-010 4.79583e-011 -5.98286e-011
696
root  -61.9366 40.161 5.00955 -31.6884 -86.2109 32.6135
RightUpLeg  -16.7825 -6.64465 -3.04697
RightLeg  14.6863 6.11314 1.50471
RightFoot  1.2315 0.0707784 -0.566422
RightToes  6.35927e-011 1.30204e-014 -6.03759e-014
Spine  15.9904 -2.43863 7.17374
Spine1  13.7067 -0.680969 -3.77996
HEad  -25.7545 -5.74432 0.710578
LeftShoulder1  2.01059 -4.65791 -18.04
LeftArm  1.51146 -57.8321 -42.5134
LeftForeArm  -17.3295 -19.4721 -6.36445
LeftHand  -0.0783758 3.76609 4.40461
RightShoulder  0.905066 1.05524 12.9033
RightArm  -6.42443 60.7754 36.3108
RightForeArm  -30.7446 10.3655 5.22779
RightHand  0.00238529 9.36427 -0.380368
LeftUpLeg  -15.7349 0.0422974 0.407268
LeftLeg  8.57554 -13.287 -0.806866
LeftFoot  5.14819 0.131689 -1.12553
LeftToes  -7.16024e-010 4.79583e-011 -5.98286e-011
697
root  -62.0386 40.2119 5.18666 -36.5647 -86.5952 38.0428
RightUpLeg  -16.9776 -6.26432 -3.24731
RightLeg  14.0676 6.26453 1.34298
RightFoot  1.50282 0.0344019 -0.214352
RightToes  6.35927e-011 1.30204e-014 -6.03759e-014
Spine  16.3787 -2.43114 7.32178
Spine1  13.6218 -0.443212 -4.32282
HEad  -26.5956 -6.83384 1.04253
LeftShoulder1  2.06903 -4.94381 -17.8905
LeftArm  -0.582563 -58.7613 -42.3439
LeftForeArm  -16.5272 -18.5434 -6.45516
LeftHand  -0.0892308 3.46752 4.45977
RightShoulder  0.920738 1.24688 12.3771
RightArm  -8.04683 62.7143 35.4416
RightForeArm  -29.4724 7.68344 4.79116
RightHand  0.0398595 8.97552 -0.0715754
LeftUpLeg  -15.8625 0.0890732 0.0142831
LeftLeg  8.1507 -12.7948 -0.504599
LeftFoot  5.62949 0.0135319 -0.317355
LeftToes  -7.16024e-010 4.79583e-011 -5.98286e-011
698
root  -62.1393 40.2485 5.3657 -41.0589 -86.869 42.9098
RightUpLeg  -17.0712 -5.97903 -3.46416
RightLeg  13.6695 6.40522 1.2094
RightFoot  1.68367 0.000429737 0.0970925
RightToes  6.35927e-011 1.30204e-014 -6.03759e-014
Spine  16.7897 -2.55001 7.39863
Spine1  13.5713 -0.34424 -4.89613
HEad  -27.268 -7.80131 1.7094
LeftShoulder1  2.07157 -5.0323 -17.649
LeftArm  -2.42666 -59.5963 -41.9741
LeftForeArm  -16.2064 -18.1529 -6.37862
LeftHand  -0.0958958 3.40135 4.7414
RightShoulder  0.94881 1.47744 12.0014
RightArm  -9.41409 64.4027 34.8673
RightForeArm  -28.4612 5.21732 4.347
RightHand  0.0686629 8.47318 0.187657
LeftUpLeg  -15.839 0.249834 -0.272831
LeftLeg  7.75018 -12.5505 -0.357295
LeftFoot  5.64795 -0.00197386 -0.2164
LeftToes  -7.16024e-010 4.79583e-011 -5.98286e-011
699
root  -62.2411 40.2766 5.54447 -44.993 -86.9807 47.1272
RightUpLeg  -17.161 -5.87026 -3.77962
RightLeg  13.5036 6.59846 1.16852
RightFoot  1.80083 -0.0232751 0.308713
RightToes  6.35927e-011 1.30204e-014 -6.03759e-014
Spine  17.165 -2.6264 7.36108
Spine1  13.4641 -0.267482 -5.31673
HEad  -27.7471 -8.8416 2.3717
LeftShoulder1  2.06834 -5.20214 -17.0969
LeftArm  -3.91904 -60.3356 -42.1008
LeftForeArm  -15.7811 -17.6603 -6.29548
LeftHand  -0.0902753 3.66066 4.99897
RightShoulder  0.964548 1.61011 11.7924
RightArm  -10.8519 65.7262 34.028
RightForeArm  -27.9578 3.09871 3.9522
RightHand  0.0662761 8.13866 0.187947
LeftUpLeg  -15.8128 0.536262 -0.587885
LeftLeg  7.41077 -12.5601 -0.416374
LeftFoot  5.77657 -0.0265329 -0.0579276
LeftToes  -7.16024e-010 4.79583e-011 -5.98286e-011
700
root  -62.3413 40.2998 5.73757 -49.9743 -87.0408 52.3473
RightUpLeg  -17.3061 -5.84844 -4.18312
RightLeg  13.5122 6.86018 1.20743
RightFoot  1.94024 -0.0386895 0.445936
RightToes  6.35927e-011 1.30204e-014 -6.03759e-014
Spine  17.3952 -2.55421 7.28269
Spine1  13.3638 -0.127303 -5.46512
HEad  -28.2382 -10.0699 2.71291
LeftShoulder1  2.08816 -5.47779 -16.5433
LeftArm  -4.90908 -61.0577 -42.8472
LeftForeArm  -15.1565 -16.7707 -6.28131
LeftHand  -0.0822961 3.8839 5.04487
RightShoulder  0.95973 1.63852 11.5716
RightArm  -12.6253 66.7261 32.5766
RightForeArm  -27.4318 1.41651 3.56315
RightHand  0.0606861 7.86195 0.156575
LeftUpLeg  -15.8529 0.512967 -1.00531
LeftLeg  7.34297 -12.1821 -0.424195
LeftFoot  5.99964 -0.117883 0.534113
LeftToes  -7.16024e-010 4.79583e-011 -5.98286e-011
701
root  -62.434 40.315 5.9551 -55.8467 -87.1243 58.3424
RightUpLeg  -17.3885 -5.88442 -4.59121
RightLeg  13.5985 7.16944 1.28553
RightFoot  2.12767 -0.0513095 0.557353
RightToes  6.35927e-011 1.30204e-014 -6.03759e-014
Spine  17.5388 -2.46879 7.28811
Spine1  13.2912 -0.000317388 -5.51375
HEad  -28.8285 -11.1669 2.86366
LeftShoulder1  2.10744 -5.67256 -16.2349
LeftArm  -5.60201 -61.8264 -43.5518
LeftForeArm  -14.3886 -15.7417 -6.29775
LeftHand  -0.0744994 4.04569 4.90214
RightShoulder  0.956896 1.72142 11.1817
RightArm  -14.5063 67.3386 30.9539
RightForeArm  -26.5382 0.327459 3.15299
RightHand  0.0814554 7.43672 0.371037
LeftUpLeg  -15.8692 0.123537 -1.44744
LeftLeg  7.52365 -11.4544 -0.280948
LeftFoot  6.00945 -0.214527 1.16713
LeftToes  -7.16024e-010 4.79583e-011 -5.98286e-011
702
root  -62.512 40.3198 6.19205 -61.1756 -87.2459 63.6803
RightUpLeg  -17.3529 -5.97162 -4.95024
RightLeg  13.6544 7.52145 1.37741
RightFoot  2.34157 -0.0685986 0.704722
RightToes  6.35927e-011 1.30204e-014 -6.03759e-014
Spine  17.705 -2.48469 7.39222
Spine1  13.1054 0.0364793 -5.61139
HEad  -29.5337 -11.876 3.05751
LeftShoulder1  2.11275 -5.73225 -16.1364
LeftArm  -6.2746 -62.5267 -43.7392
LeftForeArm  -13.4233 -14.9689 -6.27287
LeftHand  -0.0553653 4.50275 4.57441
RightShoulder  0.971717 1.94598 10.6403
RightArm  -16.0068 67.5524 29.6767
RightForeArm  -25.5536 -0.219516 2.79607
RightHand  0.117954 6.95393 0.751694
LeftUpLeg  -15.8945 -0.235936 -1.79456
LeftLeg  7.87622 -10.8165 -0.23597
LeftFoot  5.89177 -0.291433 1.68666
LeftToes  -7.16024e-010 4.79583e-011 -5.98286e-011
703
root  -62.5666 40.3148 6.44289 -67.5052 -87.4265 70.0224
RightUpLeg  -17.3633 -6.02218 -5.26304
RightLeg  13.6742 7.93377 1.47203
RightFoot  2.51979 -0.101822 0.978967
RightToes  6.35927e-011 1.30204e-014 -6.03759e-014
Spine  17.9037 -2.50261 7.51697
Spine1  12.6819 0.0517437 -5.67676
HEad  -30.0916 -12.1883 3.13857
LeftShoulder1  2.1253 -5.78107 -16.1529
LeftArm  -6.87425 -63.0313 -43.6309
LeftForeArm  -12.391 -14.4838 -6.21676
LeftHand  -0.0328007 5.13267 4.06951
RightShoulder  0.988888 2.15323 10.2445
RightArm  -17.0538 67.7914 28.3238
RightForeArm  -24.8378 -0.675379 2.68142
RightHand  0.144218 6.60483 1.04521
LeftUpLeg  -16.068 -0.365331 -2.03461
LeftLeg  8.41318 -10.2174 -0.402067
LeftFoot  5.81974 -0.381877 2.29601
LeftToes  -7.16024e-010 4.79583e-011 -5.98286e-011
704
root  -62.5945 40.3001 6.71376 -80.2091 -87.6441 82.7474
RightUpLeg  -17.4908 -5.96362 -5.52917
RightLeg  13.709 8.45164 1.56684
RightFoot  2.66452 -0.152334 1.38772
RightToes  6.35927e-011 1.30204e-014 -6.03759e-014
Spine  18.0915 -2.41127 7.6133
Spine1  12.164 0.151945 -5.67572
HEad  -30.4858 -12.2415 3.07514
LeftShoulder1  2.1494 -5.87698 -16.1781
LeftArm  -7.2965 -63.3752 -43.4989
LeftForeArm  -11.6352 -14.0663 -6.19539
LeftHand  -0.0284966 5.26938 3.67978
RightShoulder  0.990745 2.14137 10.3255
RightArm  -17.9306 68.4497 26.3396
RightForeArm  -24.5528 -1.17302 2.90974
RightHand  0.150935 6.33764 1.1503
LeftUpLeg  -16.3437 -0.481465 -2.21809
LeftLeg  9.11636 -9.30309 -0.566759
LeftFoot  5.62553 -0.478971 2.98203
LeftToes  -7.16024e-010 4.79583e-011 -5.98286e-011
705
root  -62.6002 40.2726 7.01463 -102.652 -87.7166 105.067
RightUpLeg  -17.5411 -5.78713 -5.72607
RightLeg  13.7259 9.1409 1.65663
RightFoot  2.89303 -0.205582 1.804
RightToes  6.35927e-011 1.30204e-014 -6.03759e-014
Spine  18.2255 -2.27653 7.63221
Spine1  11.875 0.294899 -5.68725
HEad  -30.9604 -12.0421 3.16647
LeftShoulder1  2.15294 -5.90729 -16.1386
LeftArm  -7.79422 -63.5757 -43.0884
LeftForeArm  -11.1934 -13.7755 -6.17607
LeftHand  -0.0415968 4.78915 3.68338
RightShoulder  0.986018 2.02996 10.6231
RightArm  -18.5834 69.014 24.7344
RightForeArm  -24.6709 -0.908517 3.19786
RightHand  0.137133 5.95811 1.06844
LeftUpLeg  -16.5792 -0.64455 -2.34063
LeftLeg  10.0284 -8.08461 -0.660696
LeftFoot  5.14098 -0.556582 3.62666
LeftToes  -7.16024e-010 4.79583e-011 -5.98286e-011
706
root  -62.586 40.2273 7.34811 -129.274 -87.4032 131.353
RightUpLeg  -17.4 -5.46162 -5.82336
RightLeg  13.6749 9.99684 1.72754
RightFoot  3.19039 -0.257608 2.19111
RightToes  6.35927e-011 1.30204e-014 -6.03759e-014
Spine  18.2854 -2.23099 7.56685
Spine1  11.8911 0.35924 -5.76969
HEad  -31.496 -11.5329 3.53341
LeftShoulder1  2.1218 -5.81909 -16.0102
LeftArm  -8.847 -63.3912 -42.0637
LeftForeArm  -10.5405 -13.9676 -5.98415
LeftHand  -0.0501264 4.47228 3.7004
RightShoulder  1.00218 2.15731 10.5002
RightArm  -18.4111 68.4621 25.532
RightForeArm  -24.7832 0.969242 3.07249
RightHand  0.0903739 5.47186 0.644039
LeftUpLeg  -16.8263 -0.365857 -2.37198
LeftLeg  11.3269 -6.96584 -0.903647
LeftFoot  4.54409 -0.630359 4.31842
LeftToes  -7.16024e-010 4.79583e-011 -5.98286e-011
